<svg width="29" height="27" viewBox="0 0 29 27" fill="none" xmlns="http://www.w3.org/2000/svg">
<path d="M14.5 0C22.5081 0 29 5.12609 29 11.4512C29 17.7748 22.5081 22.9009 14.5 22.9009C13.7026 22.9014 12.906 22.85 12.1151 22.747L6.02786 26.7805C5.336 27.1512 5.09157 27.1107 5.37605 26.2027L6.60786 21.057C2.63071 19.0144 0 15.4748 0 11.4512C0 5.12749 6.49186 0 14.5 0ZM22.6573 11.2763L24.6873 9.28405C24.8044 9.16081 24.8698 8.99632 24.8696 8.82523C24.8694 8.65414 24.8036 8.48981 24.6862 8.36685C24.5688 8.24389 24.4088 8.17191 24.24 8.16606C24.0713 8.16021 23.9068 8.22096 23.7814 8.3355L21.1189 10.9461V8.78879C21.1189 8.61365 21.0502 8.44569 20.928 8.32185C20.8058 8.19801 20.64 8.12844 20.4671 8.12844C20.2942 8.12844 20.1284 8.19801 20.0062 8.32185C19.884 8.44569 19.8153 8.61365 19.8153 8.78879V12.3661C19.7909 12.4682 19.7909 12.5747 19.8153 12.6767V14.69C19.8153 14.8651 19.884 15.0331 20.0062 15.1569C20.1284 15.2807 20.2942 15.3503 20.4671 15.3503C20.64 15.3503 20.8058 15.2807 20.928 15.1569C21.0502 15.0331 21.1189 14.8651 21.1189 14.69V12.7831L21.7086 12.2053L23.6806 15.0495C23.7298 15.1205 23.7924 15.181 23.8647 15.2275C23.937 15.274 24.0176 15.3057 24.102 15.3206C24.1864 15.3355 24.2728 15.3335 24.3564 15.3146C24.44 15.2957 24.5191 15.2603 24.5892 15.2104C24.6593 15.1605 24.719 15.0971 24.765 15.0239C24.8109 14.9506 24.8421 14.8689 24.8568 14.7834C24.8716 14.698 24.8696 14.6104 24.8509 14.5257C24.8322 14.441 24.7973 14.3608 24.748 14.2898L22.6573 11.2749V11.2763ZM18.5724 13.968H16.5562V8.80977C16.5485 8.64008 16.4766 8.47993 16.3553 8.3626C16.234 8.24528 16.0728 8.17981 15.9051 8.17981C15.7374 8.17981 15.5762 8.24528 15.4549 8.3626C15.3337 8.47993 15.2617 8.64008 15.254 8.80977V14.6284C15.254 14.9921 15.544 15.2887 15.9044 15.2887H18.5724C18.7453 15.2887 18.9111 15.2192 19.0333 15.0953C19.1556 14.9715 19.2242 14.8035 19.2242 14.6284C19.2242 14.4533 19.1556 14.2853 19.0333 14.1615C18.9111 14.0376 18.7453 13.968 18.5724 13.968ZM10.4842 12.4403L11.4453 10.0521L12.3264 12.4403H10.4842ZM13.9683 13.123L13.9711 13.1006C13.9708 12.9343 13.9081 12.7743 13.7957 12.6529L12.3512 8.73563C12.2907 8.54895 12.1753 8.38544 12.0206 8.26694C11.8659 8.14844 11.6792 8.0806 11.4854 8.07248C11.2902 8.07161 11.0993 8.13098 10.9382 8.24269C10.7771 8.35441 10.6535 8.51317 10.5836 8.69785L8.28986 14.399C8.25749 14.4792 8.24104 14.5652 8.24146 14.6519C8.24188 14.7387 8.25916 14.8244 8.29231 14.9044C8.32546 14.9844 8.37383 15.0569 8.43466 15.118C8.49549 15.179 8.56758 15.2273 8.64683 15.2601C8.72608 15.2929 8.81093 15.3095 8.89654 15.3091C8.98214 15.3087 9.06683 15.2912 9.14575 15.2576C9.22468 15.224 9.29631 15.175 9.35654 15.1134C9.41677 15.0517 9.46444 14.9787 9.49681 14.8984L9.95252 13.761H12.8111L13.224 14.8802C13.2521 14.9639 13.2964 15.041 13.3545 15.107C13.4125 15.1729 13.483 15.2264 13.5618 15.2643C13.6406 15.3022 13.7261 15.3236 13.8132 15.3274C13.9004 15.3312 13.9874 15.3172 14.0691 15.2863C14.1508 15.2554 14.2256 15.2082 14.2889 15.1475C14.3523 15.0868 14.403 15.0138 14.438 14.9329C14.4731 14.852 14.4917 14.7648 14.4929 14.6764C14.494 14.5881 14.4777 14.5004 14.4448 14.4185L13.9683 13.123ZM9.38081 8.81677C9.38081 8.64188 9.31233 8.47412 9.19039 8.35033C9.06845 8.22653 8.90301 8.15679 8.73038 8.15642H4.24919C4.07632 8.15642 3.91053 8.22599 3.78829 8.34983C3.66605 8.47367 3.59738 8.64163 3.59738 8.81677C3.59738 8.99191 3.66605 9.15987 3.78829 9.28371C3.91053 9.40755 4.07632 9.47712 4.24919 9.47712H5.8511V14.7039C5.8511 14.8791 5.91977 15.047 6.04201 15.1709C6.16424 15.2947 6.33003 15.3643 6.5029 15.3643C6.67578 15.3643 6.84157 15.2947 6.9638 15.1709C7.08604 15.047 7.15471 14.8791 7.15471 14.7039V9.47712H8.729C9.08943 9.47712 9.38081 9.18052 9.38081 8.81677Z" fill="black"/>
</svg>
